<svg version="1.1" id="cat-icon" xmlns="http://www.w3.org/2000/svg" x="0" y="0" viewBox="0 0 100 100" xml:space="preserve">
  <path d="M43.1 36.8c-2.1 0-3.8 1.7-3.8 3.8s1.7 3.8 3.8 3.8 3.8-1.7 3.8-3.8-1.7-3.8-3.8-3.8zm33.8 19.1s1.5-1.8 2.9-5.1h-3.5c-.6 0-1-.4-1-1s.4-1 1-1h4.3c.3-.8.6-1.8.8-2.7H78c-.6 0-1-.4-1-1s.4-1 1-1h3.8c1.3-7.3.5-21-.9-26.5-1.3-5.3-3.4-5.2-3.4-5.2l-10 11.1s-4.7-3.8-12.1-3.8-12.1 3.8-12.1 3.8l-10-11.1s-2.1-.1-3.4 5.2c-1.4 5.4-2.2 19.1-.9 26.5h3.8c.6 0 1 .4 1 1s-.4 1-1 1h-3.4c.2 1 .5 1.9.8 2.7h4.3c.6 0 1 .4 1 1s-.4 1-1 1H31c1.4 3.3 2.9 5.1 2.9 5.1s-6.5 5.3-6.5 16.2S37 86.5 39.8 86.9c2.8.4 8.5.4 9-5.4s-5.2-7.4-6.1-7.5l-.9-.1-4-16.9 17.8 4 17.8-4-4 16.9-.9.1c-.9.1-6.6 1.7-6.1 7.5s6.2 5.8 9 5.4S83.8 83 83.8 72.1c-.4-10.8-6.9-16.2-6.9-16.2zM40.1 78.2h4.4c.6 0 1 .4 1 1s-.4 1-1 1h-4.4c-.6 0-1-.4-1-1s.4-1 1-1zm0 3.3h4.4c.6 0 1 .4 1 1s-.4 1-1 1h-4.4c-.6 0-1-.4-1-1s.4-1 1-1zm30.4 2H66c-.6 0-1-.4-1-1s.4-1 1-1h4.4c.6 0 1 .4 1 1s-.4 1-.9 1zm0-3.3H66c-.6 0-1-.4-1-1s.4-1 1-1h4.4c.6 0 1 .4 1 1s-.4 1-.9 1zM43.1 46.9c-3.4 0-6.2-2.8-6.2-6.2s2.8-6.2 6.2-6.2 6.2 2.8 6.2 6.2-2.7 6.2-6.2 6.2zm14.8-2s-1.7.7-1.7 1.9v4.1c0 .6-.4 1-1 1s-1-.4-1-1v-4.1c0-1.2-1.7-1.9-1.7-1.9-.5-.2-.8-.8-.6-1.3s.8-.8 1.3-.6c.1 0 1.1.4 1.9 1.3.8-.9 1.9-1.3 1.9-1.3.5-.2 1.1.1 1.3.6.4.6.1 1.1-.4 1.3zm9.5 2c-3.4 0-6.2-2.8-6.2-6.2s2.8-6.2 6.2-6.2 6.2 2.8 6.2 6.2-2.7 6.2-6.2 6.2zm0-10.1c-2.1 0-3.8 1.7-3.8 3.8s1.7 3.8 3.8 3.8 3.8-1.7 3.8-3.8-1.7-3.8-3.8-3.8zM25.7 72.1c0-1.1.1-2.1.2-3-.6-.8-.9-1.7-.9-2v-9.3c0-6.3-5.1-11.6-12-12.3-2.5-.3-4.7 1.5-5 4s1.5 4.7 4 5c2.1.2 4 1.8 4 3.4v9.3c0 3.2 1.7 6.8 4.4 9.2 2 1.8 4.4 2.9 7 3.2-1.1-2.1-1.7-4.6-1.7-7.5z" fill="#fff" />
  <path d="M58.8 72.3c-.5 0-.9-.3-1-.8-.1-.5.2-1.1.7-1.2l8.2-2c.5-.1 1.1.2 1.2.7s-.2 1.1-.7 1.2l-8.2 2c0 .1-.1.1-.2.1zm0-3.7c-.4 0-.9-.3-1-.8-.1-.5.2-1.1.7-1.2l8.8-2.2c.5-.1 1.1.2 1.2.7.1.5-.2 1.1-.7 1.2L59 68.6h-.2zm0-3.7c-.4 0-.9-.3-1-.8-.1-.5.2-1.1.7-1.2l9.5-2.4c.5-.1 1.1.2 1.2.7s-.2 1.1-.7 1.2L59 64.9h-.2z" fill="#fff"/>
</svg>
